<?xml version="1.0" encoding="UTF-8"?>
<svg xmlns="http://www.w3.org/2000/svg" width="1200" height="630" viewBox="0 0 1200 630" fill="none">
  
      <defs>
        <linearGradient id="e-campusfest2026g-bg" x1="0" y1="0" x2="1" y2="1">
          <stop offset="0%" stop-color="#000000"/>
          <stop offset="100%" stop-color="#1A1A1A"/>
        </linearGradient>
      </defs>
      <rect width="100%" height="100%" fill="url(#e-campusfest2026g-bg)"/>
      <g opacity="0.95">
        <rect x="0" y="0" width="100%" height="10" fill="#8EF012"/>
        <rect x="0" y="620" width="100%" height="10" fill="#8EF012" fill-opacity="0.5"/>
        <path d="M0 140 L200 0 H360 L160 140 Z" fill="#8EF012" fill-opacity="0.9"/>
        <path d="M920 0 L1200 0 L1200 200 Z" fill="#FFFFFF" fill-opacity="0.06"/>
        <path d="M0 440 L400 630 H0 Z" fill="#8EF012" fill-opacity="0.14"/>
        <rect x="0" y="150" width="100%" height="18" fill="#8EF012" fill-opacity="0.12"/>
        <rect x="0" y="178" width="100%" height="8" fill="#FFFFFF" fill-opacity="0.06"/>
      </g>
      <rect x="860" y="200" width="220" height="220" rx="20" fill="#111111" stroke="#8EF012" stroke-width="3"/>
      <text x="970" y="330" text-anchor="middle" fill="#8EF012" font-family="Manrope,Arial,sans-serif" font-size="72" font-weight="800">26</text>
  <rect x="40" y="40" width="1120" height="550" fill="none" stroke="#FFFFFF" stroke-opacity="0.08" stroke-width="2"/>
  <text x="88" y="112" fill="#8EF012" font-family="Manrope,Arial,sans-serif" font-size="18" font-weight="700" letter-spacing="3.5">PÀDÉYÁ · CAMPUS</text>
  <text x="88" y="300" fill="#FFFFFF" font-family="Manrope,Arial,sans-serif" font-size="64" font-weight="800">Campus Fest 2026</text>
  <text x="88" y="360" fill="#DDDDDD" font-family="Manrope,Arial,sans-serif" font-size="26">Gallery cut · Campus energy</text>
  <rect x="88" y="398" width="160" height="6" rx="3" fill="#8EF012"/>
</svg>
