<?xml version="1.0" encoding="UTF-8"?>
<svg xmlns="http://www.w3.org/2000/svg" width="1200" height="750" viewBox="0 0 1200 750" fill="none">
  <defs>
    <linearGradient id="cityakure-bg" x1="0" y1="0" x2="1" y2="1">
      <stop offset="0%" stop-color="#000000"/>
      <stop offset="55%" stop-color="#111111"/>
      <stop offset="100%" stop-color="#1A1A1A"/>
    </linearGradient>
    <radialGradient id="cityakure-glow" cx="79%" cy="21%" r="48%">
      <stop offset="0%" stop-color="#8EF012" stop-opacity="0.55"/>
      <stop offset="100%" stop-color="#8EF012" stop-opacity="0"/>
    </radialGradient>
    <linearGradient id="cityakure-wave" x1="0" y1="0" x2="1" y2="0">
      <stop offset="0%" stop-color="#8EF012" stop-opacity="0"/>
      <stop offset="40%" stop-color="#8EF012" stop-opacity="0.85"/>
      <stop offset="100%" stop-color="#8EF012" stop-opacity="0.15"/>
    </linearGradient>
  </defs>
  <rect width="100%" height="100%" fill="url(#cityakure-bg)"/>
  <circle cx="948" cy="157" r="280" fill="url(#cityakure-glow)"/>
  
  <g fill="none" stroke="#8EF012" stroke-opacity="0.35">
    <path d="M120 520 A280 280 0 0 1 680 520" stroke-width="8"/>
    <path d="M220 520 A180 180 0 0 1 580 520" stroke-width="5" stroke-opacity="0.55"/>
    <path d="M300 520 A100 100 0 0 1 500 520" stroke-width="3" stroke-opacity="0.8"/>
  </g>
  <circle cx="400" cy="520" r="8" fill="#8EF012"/>
  <circle cx="948" cy="157" r="88" fill="none" stroke="#8EF012" stroke-opacity="0.28" stroke-width="10"/>
  <circle cx="948" cy="157" r="42" fill="#8EF012" fill-opacity="0.16"/>
  <circle cx="948" cy="157" r="10" fill="#8EF012"/>
  <rect x="0" y="0" width="10" height="100%" fill="#8EF012"/>
  <text x="56" y="72" fill="#8EF012" font-family="Manrope,Arial,sans-serif" font-size="18" font-weight="700" letter-spacing="3.5">PÀDÉYÁ · BROWSE</text>
  <text x="56" y="640" fill="#FFFFFF" font-family="Manrope,Arial,sans-serif" font-size="48" font-weight="800">AKURE</text>
  <rect x="56" y="668" width="140" height="6" rx="3" fill="#8EF012"/>
</svg>
